<svg xmlns="http://www.w3.org/2000/svg" viewBox="0 0 24 24" width="24" height="24" shape-rendering="crispEdges">
<title>Flashwright app icon, 24px drawing</title>
<rect x="10" y="1" width="12" height="1" fill="#2A2E31"/>
<rect x="10" y="2" width="1" height="1" fill="#2A2E31"/>
<rect x="11" y="2" width="10" height="1" fill="#0A5C5C"/>
<rect x="21" y="2" width="1" height="1" fill="#2A2E31"/>
<rect x="10" y="3" width="1" height="1" fill="#2A2E31"/>
<rect x="11" y="3" width="10" height="1" fill="#F2F4F5"/>
<rect x="21" y="3" width="1" height="1" fill="#2A2E31"/>
<rect x="10" y="4" width="1" height="1" fill="#2A2E31"/>
<rect x="11" y="4" width="1" height="1" fill="#F2F4F5"/>
<rect x="12" y="4" width="8" height="1" fill="#FFFFFF"/>
<rect x="20" y="4" width="1" height="1" fill="#8E959A"/>
<rect x="21" y="4" width="1" height="1" fill="#2A2E31"/>
<rect x="10" y="5" width="1" height="1" fill="#2A2E31"/>
<rect x="11" y="5" width="1" height="1" fill="#F2F4F5"/>
<rect x="12" y="5" width="3" height="1" fill="#FFFFFF"/>
<rect x="15" y="5" width="4" height="1" fill="#2A2E31"/>
<rect x="19" y="5" width="1" height="1" fill="#FFFFFF"/>
<rect x="20" y="5" width="1" height="1" fill="#8E959A"/>
<rect x="21" y="5" width="1" height="1" fill="#2A2E31"/>
<rect x="4" y="6" width="1" height="1" fill="#2A2E31"/>
<rect x="10" y="6" width="1" height="1" fill="#2A2E31"/>
<rect x="11" y="6" width="1" height="1" fill="#F2F4F5"/>
<rect x="12" y="6" width="2" height="1" fill="#FFFFFF"/>
<rect x="14" y="6" width="1" height="1" fill="#2A2E31"/>
<rect x="15" y="6" width="3" height="1" fill="#E39B2D"/>
<rect x="18" y="6" width="1" height="1" fill="#2A2E31"/>
<rect x="19" y="6" width="1" height="1" fill="#FFFFFF"/>
<rect x="20" y="6" width="1" height="1" fill="#8E959A"/>
<rect x="21" y="6" width="1" height="1" fill="#2A2E31"/>
<rect x="3" y="7" width="1" height="1" fill="#2A2E31"/>
<rect x="4" y="7" width="1" height="1" fill="#0F8A8A"/>
<rect x="5" y="7" width="1" height="1" fill="#2A2E31"/>
<rect x="10" y="7" width="1" height="1" fill="#2A2E31"/>
<rect x="11" y="7" width="1" height="1" fill="#F2F4F5"/>
<rect x="12" y="7" width="2" height="1" fill="#FFFFFF"/>
<rect x="14" y="7" width="1" height="1" fill="#2A2E31"/>
<rect x="15" y="7" width="2" height="1" fill="#E39B2D"/>
<rect x="17" y="7" width="1" height="1" fill="#2A2E31"/>
<rect x="18" y="7" width="2" height="1" fill="#FFFFFF"/>
<rect x="20" y="7" width="1" height="1" fill="#8E959A"/>
<rect x="21" y="7" width="1" height="1" fill="#2A2E31"/>
<rect x="3" y="8" width="1" height="1" fill="#2A2E31"/>
<rect x="4" y="8" width="2" height="1" fill="#0F8A8A"/>
<rect x="6" y="8" width="1" height="1" fill="#2A2E31"/>
<rect x="10" y="8" width="1" height="1" fill="#2A2E31"/>
<rect x="11" y="8" width="1" height="1" fill="#F2F4F5"/>
<rect x="12" y="8" width="1" height="1" fill="#FFFFFF"/>
<rect x="13" y="8" width="1" height="1" fill="#2A2E31"/>
<rect x="14" y="8" width="3" height="1" fill="#E39B2D"/>
<rect x="17" y="8" width="2" height="1" fill="#2A2E31"/>
<rect x="19" y="8" width="1" height="1" fill="#FFFFFF"/>
<rect x="20" y="8" width="1" height="1" fill="#8E959A"/>
<rect x="21" y="8" width="1" height="1" fill="#2A2E31"/>
<rect x="1" y="9" width="3" height="1" fill="#2A2E31"/>
<rect x="4" y="9" width="3" height="1" fill="#0F8A8A"/>
<rect x="7" y="9" width="1" height="1" fill="#2A2E31"/>
<rect x="10" y="9" width="1" height="1" fill="#2A2E31"/>
<rect x="11" y="9" width="1" height="1" fill="#F2F4F5"/>
<rect x="12" y="9" width="1" height="1" fill="#FFFFFF"/>
<rect x="13" y="9" width="1" height="1" fill="#2A2E31"/>
<rect x="14" y="9" width="4" height="1" fill="#E39B2D"/>
<rect x="18" y="9" width="1" height="1" fill="#2A2E31"/>
<rect x="19" y="9" width="1" height="1" fill="#FFFFFF"/>
<rect x="20" y="9" width="1" height="1" fill="#8E959A"/>
<rect x="21" y="9" width="1" height="1" fill="#2A2E31"/>
<rect x="0" y="10" width="1" height="1" fill="#2A2E31"/>
<rect x="1" y="10" width="7" height="1" fill="#0F8A8A"/>
<rect x="8" y="10" width="1" height="1" fill="#2A2E31"/>
<rect x="10" y="10" width="1" height="1" fill="#2A2E31"/>
<rect x="11" y="10" width="1" height="1" fill="#F2F4F5"/>
<rect x="12" y="10" width="1" height="1" fill="#FFFFFF"/>
<rect x="13" y="10" width="2" height="1" fill="#2A2E31"/>
<rect x="15" y="10" width="2" height="1" fill="#E39B2D"/>
<rect x="17" y="10" width="1" height="1" fill="#2A2E31"/>
<rect x="18" y="10" width="2" height="1" fill="#FFFFFF"/>
<rect x="20" y="10" width="1" height="1" fill="#8E959A"/>
<rect x="21" y="10" width="1" height="1" fill="#2A2E31"/>
<rect x="0" y="11" width="1" height="1" fill="#2A2E31"/>
<rect x="1" y="11" width="8" height="1" fill="#0F8A8A"/>
<rect x="9" y="11" width="2" height="1" fill="#2A2E31"/>
<rect x="11" y="11" width="1" height="1" fill="#F2F4F5"/>
<rect x="12" y="11" width="2" height="1" fill="#FFFFFF"/>
<rect x="14" y="11" width="1" height="1" fill="#2A2E31"/>
<rect x="15" y="11" width="1" height="1" fill="#E39B2D"/>
<rect x="16" y="11" width="1" height="1" fill="#2A2E31"/>
<rect x="17" y="11" width="3" height="1" fill="#FFFFFF"/>
<rect x="20" y="11" width="1" height="1" fill="#8E959A"/>
<rect x="21" y="11" width="1" height="1" fill="#2A2E31"/>
<rect x="0" y="12" width="1" height="1" fill="#2A2E31"/>
<rect x="1" y="12" width="7" height="1" fill="#0F8A8A"/>
<rect x="8" y="12" width="1" height="1" fill="#2A2E31"/>
<rect x="10" y="12" width="1" height="1" fill="#2A2E31"/>
<rect x="11" y="12" width="1" height="1" fill="#F2F4F5"/>
<rect x="12" y="12" width="1" height="1" fill="#FFFFFF"/>
<rect x="13" y="12" width="1" height="1" fill="#2A2E31"/>
<rect x="14" y="12" width="1" height="1" fill="#E39B2D"/>
<rect x="15" y="12" width="1" height="1" fill="#2A2E31"/>
<rect x="16" y="12" width="4" height="1" fill="#FFFFFF"/>
<rect x="20" y="12" width="1" height="1" fill="#8E959A"/>
<rect x="21" y="12" width="1" height="1" fill="#2A2E31"/>
<rect x="1" y="13" width="3" height="1" fill="#2A2E31"/>
<rect x="4" y="13" width="3" height="1" fill="#0F8A8A"/>
<rect x="7" y="13" width="1" height="1" fill="#2A2E31"/>
<rect x="10" y="13" width="1" height="1" fill="#2A2E31"/>
<rect x="11" y="13" width="1" height="1" fill="#F2F4F5"/>
<rect x="12" y="13" width="1" height="1" fill="#FFFFFF"/>
<rect x="13" y="13" width="2" height="1" fill="#2A2E31"/>
<rect x="15" y="13" width="5" height="1" fill="#FFFFFF"/>
<rect x="20" y="13" width="1" height="1" fill="#8E959A"/>
<rect x="21" y="13" width="1" height="1" fill="#2A2E31"/>
<rect x="3" y="14" width="1" height="1" fill="#2A2E31"/>
<rect x="4" y="14" width="2" height="1" fill="#0F8A8A"/>
<rect x="6" y="14" width="1" height="1" fill="#2A2E31"/>
<rect x="10" y="14" width="1" height="1" fill="#2A2E31"/>
<rect x="11" y="14" width="1" height="1" fill="#F2F4F5"/>
<rect x="12" y="14" width="8" height="1" fill="#FFFFFF"/>
<rect x="20" y="14" width="1" height="1" fill="#8E959A"/>
<rect x="21" y="14" width="1" height="1" fill="#2A2E31"/>
<rect x="3" y="15" width="1" height="1" fill="#2A2E31"/>
<rect x="4" y="15" width="1" height="1" fill="#0F8A8A"/>
<rect x="5" y="15" width="1" height="1" fill="#2A2E31"/>
<rect x="10" y="15" width="1" height="1" fill="#2A2E31"/>
<rect x="11" y="15" width="1" height="1" fill="#F2F4F5"/>
<rect x="12" y="15" width="8" height="1" fill="#FFFFFF"/>
<rect x="20" y="15" width="1" height="1" fill="#8E959A"/>
<rect x="21" y="15" width="1" height="1" fill="#2A2E31"/>
<rect x="4" y="16" width="1" height="1" fill="#2A2E31"/>
<rect x="10" y="16" width="1" height="1" fill="#2A2E31"/>
<rect x="11" y="16" width="1" height="1" fill="#F2F4F5"/>
<rect x="12" y="16" width="8" height="1" fill="#FFFFFF"/>
<rect x="20" y="16" width="1" height="1" fill="#8E959A"/>
<rect x="21" y="16" width="1" height="1" fill="#2A2E31"/>
<rect x="10" y="17" width="1" height="1" fill="#2A2E31"/>
<rect x="11" y="17" width="1" height="1" fill="#F2F4F5"/>
<rect x="12" y="17" width="8" height="1" fill="#D5D9DC"/>
<rect x="20" y="17" width="1" height="1" fill="#8E959A"/>
<rect x="21" y="17" width="1" height="1" fill="#2A2E31"/>
<rect x="10" y="18" width="1" height="1" fill="#2A2E31"/>
<rect x="11" y="18" width="1" height="1" fill="#F2F4F5"/>
<rect x="12" y="18" width="8" height="1" fill="#D5D9DC"/>
<rect x="20" y="18" width="1" height="1" fill="#8E959A"/>
<rect x="21" y="18" width="1" height="1" fill="#2A2E31"/>
<rect x="10" y="19" width="1" height="1" fill="#2A2E31"/>
<rect x="11" y="19" width="1" height="1" fill="#F2F4F5"/>
<rect x="12" y="19" width="3" height="1" fill="#D5D9DC"/>
<rect x="15" y="19" width="2" height="1" fill="#2A2E31"/>
<rect x="17" y="19" width="3" height="1" fill="#D5D9DC"/>
<rect x="20" y="19" width="1" height="1" fill="#8E959A"/>
<rect x="21" y="19" width="1" height="1" fill="#2A2E31"/>
<rect x="10" y="20" width="1" height="1" fill="#2A2E31"/>
<rect x="11" y="20" width="1" height="1" fill="#F2F4F5"/>
<rect x="12" y="20" width="8" height="1" fill="#D5D9DC"/>
<rect x="20" y="20" width="1" height="1" fill="#8E959A"/>
<rect x="21" y="20" width="1" height="1" fill="#2A2E31"/>
<rect x="10" y="21" width="1" height="1" fill="#2A2E31"/>
<rect x="11" y="21" width="10" height="1" fill="#8E959A"/>
<rect x="21" y="21" width="1" height="1" fill="#2A2E31"/>
<rect x="10" y="22" width="12" height="1" fill="#2A2E31"/>
</svg>
