<svg xmlns="http://www.w3.org/2000/svg" viewBox="0 0 32 32" width="32" height="32" shape-rendering="crispEdges">
<title>phone-connect (32px)</title>
<rect x="1" y="1" width="13" height="1" fill="#2A2E31"/>
<rect x="1" y="2" width="1" height="1" fill="#2A2E31"/>
<rect x="2" y="2" width="11" height="1" fill="#0A5C5C"/>
<rect x="13" y="2" width="1" height="1" fill="#2A2E31"/>
<rect x="1" y="3" width="1" height="1" fill="#2A2E31"/>
<rect x="2" y="3" width="11" height="1" fill="#0A5C5C"/>
<rect x="13" y="3" width="1" height="1" fill="#2A2E31"/>
<rect x="1" y="4" width="1" height="1" fill="#2A2E31"/>
<rect x="2" y="4" width="11" height="1" fill="#F2F4F5"/>
<rect x="13" y="4" width="1" height="1" fill="#2A2E31"/>
<rect x="1" y="5" width="1" height="1" fill="#2A2E31"/>
<rect x="2" y="5" width="1" height="1" fill="#F2F4F5"/>
<rect x="3" y="5" width="9" height="1" fill="#FFFFFF"/>
<rect x="12" y="5" width="1" height="1" fill="#8E959A"/>
<rect x="13" y="5" width="1" height="1" fill="#2A2E31"/>
<rect x="1" y="6" width="1" height="1" fill="#2A2E31"/>
<rect x="2" y="6" width="1" height="1" fill="#F2F4F5"/>
<rect x="3" y="6" width="9" height="1" fill="#FFFFFF"/>
<rect x="12" y="6" width="1" height="1" fill="#8E959A"/>
<rect x="13" y="6" width="1" height="1" fill="#2A2E31"/>
<rect x="1" y="7" width="1" height="1" fill="#2A2E31"/>
<rect x="2" y="7" width="1" height="1" fill="#F2F4F5"/>
<rect x="3" y="7" width="9" height="1" fill="#FFFFFF"/>
<rect x="12" y="7" width="1" height="1" fill="#8E959A"/>
<rect x="13" y="7" width="1" height="1" fill="#2A2E31"/>
<rect x="1" y="8" width="1" height="1" fill="#2A2E31"/>
<rect x="2" y="8" width="1" height="1" fill="#F2F4F5"/>
<rect x="3" y="8" width="9" height="1" fill="#FFFFFF"/>
<rect x="12" y="8" width="1" height="1" fill="#8E959A"/>
<rect x="13" y="8" width="1" height="1" fill="#2A2E31"/>
<rect x="18" y="8" width="8" height="1" fill="#2A2E31"/>
<rect x="1" y="9" width="1" height="1" fill="#2A2E31"/>
<rect x="2" y="9" width="1" height="1" fill="#F2F4F5"/>
<rect x="3" y="9" width="9" height="1" fill="#FFFFFF"/>
<rect x="12" y="9" width="1" height="1" fill="#8E959A"/>
<rect x="13" y="9" width="1" height="1" fill="#2A2E31"/>
<rect x="18" y="9" width="1" height="1" fill="#2A2E31"/>
<rect x="19" y="9" width="6" height="1" fill="#F2F4F5"/>
<rect x="25" y="9" width="1" height="1" fill="#2A2E31"/>
<rect x="1" y="10" width="1" height="1" fill="#2A2E31"/>
<rect x="2" y="10" width="1" height="1" fill="#F2F4F5"/>
<rect x="3" y="10" width="9" height="1" fill="#FFFFFF"/>
<rect x="12" y="10" width="1" height="1" fill="#8E959A"/>
<rect x="13" y="10" width="1" height="1" fill="#2A2E31"/>
<rect x="18" y="10" width="1" height="1" fill="#2A2E31"/>
<rect x="19" y="10" width="1" height="1" fill="#F2F4F5"/>
<rect x="20" y="10" width="4" height="1" fill="#D5D9DC"/>
<rect x="24" y="10" width="1" height="1" fill="#8E959A"/>
<rect x="25" y="10" width="1" height="1" fill="#2A2E31"/>
<rect x="1" y="11" width="1" height="1" fill="#2A2E31"/>
<rect x="2" y="11" width="1" height="1" fill="#F2F4F5"/>
<rect x="3" y="11" width="9" height="1" fill="#FFFFFF"/>
<rect x="12" y="11" width="1" height="1" fill="#8E959A"/>
<rect x="13" y="11" width="1" height="1" fill="#2A2E31"/>
<rect x="15" y="11" width="4" height="1" fill="#2A2E31"/>
<rect x="19" y="11" width="1" height="1" fill="#F2F4F5"/>
<rect x="20" y="11" width="5" height="1" fill="#8E959A"/>
<rect x="25" y="11" width="1" height="1" fill="#2A2E31"/>
<rect x="1" y="12" width="1" height="1" fill="#2A2E31"/>
<rect x="2" y="12" width="1" height="1" fill="#F2F4F5"/>
<rect x="3" y="12" width="9" height="1" fill="#FFFFFF"/>
<rect x="12" y="12" width="1" height="1" fill="#8E959A"/>
<rect x="13" y="12" width="1" height="1" fill="#2A2E31"/>
<rect x="15" y="12" width="4" height="1" fill="#2A2E31"/>
<rect x="19" y="12" width="1" height="1" fill="#F2F4F5"/>
<rect x="20" y="12" width="5" height="1" fill="#8E959A"/>
<rect x="25" y="12" width="1" height="1" fill="#2A2E31"/>
<rect x="1" y="13" width="1" height="1" fill="#2A2E31"/>
<rect x="2" y="13" width="1" height="1" fill="#F2F4F5"/>
<rect x="3" y="13" width="9" height="1" fill="#FFFFFF"/>
<rect x="12" y="13" width="1" height="1" fill="#8E959A"/>
<rect x="13" y="13" width="1" height="1" fill="#2A2E31"/>
<rect x="18" y="13" width="1" height="1" fill="#2A2E31"/>
<rect x="19" y="13" width="1" height="1" fill="#F2F4F5"/>
<rect x="20" y="13" width="4" height="1" fill="#D5D9DC"/>
<rect x="24" y="13" width="1" height="1" fill="#8E959A"/>
<rect x="25" y="13" width="7" height="1" fill="#2A2E31"/>
<rect x="1" y="14" width="1" height="1" fill="#2A2E31"/>
<rect x="2" y="14" width="1" height="1" fill="#F2F4F5"/>
<rect x="3" y="14" width="9" height="1" fill="#FFFFFF"/>
<rect x="12" y="14" width="1" height="1" fill="#8E959A"/>
<rect x="13" y="14" width="1" height="1" fill="#2A2E31"/>
<rect x="18" y="14" width="1" height="1" fill="#2A2E31"/>
<rect x="19" y="14" width="1" height="1" fill="#F2F4F5"/>
<rect x="20" y="14" width="4" height="1" fill="#D5D9DC"/>
<rect x="24" y="14" width="1" height="1" fill="#8E959A"/>
<rect x="25" y="14" width="1" height="1" fill="#2A2E31"/>
<rect x="26" y="14" width="6" height="1" fill="#0F8A8A"/>
<rect x="1" y="15" width="1" height="1" fill="#2A2E31"/>
<rect x="2" y="15" width="1" height="1" fill="#F2F4F5"/>
<rect x="3" y="15" width="9" height="1" fill="#FFFFFF"/>
<rect x="12" y="15" width="1" height="1" fill="#8E959A"/>
<rect x="13" y="15" width="1" height="1" fill="#2A2E31"/>
<rect x="18" y="15" width="1" height="1" fill="#2A2E31"/>
<rect x="19" y="15" width="1" height="1" fill="#F2F4F5"/>
<rect x="20" y="15" width="4" height="1" fill="#D5D9DC"/>
<rect x="24" y="15" width="1" height="1" fill="#8E959A"/>
<rect x="25" y="15" width="1" height="1" fill="#2A2E31"/>
<rect x="26" y="15" width="6" height="1" fill="#0F8A8A"/>
<rect x="1" y="16" width="1" height="1" fill="#2A2E31"/>
<rect x="2" y="16" width="1" height="1" fill="#F2F4F5"/>
<rect x="3" y="16" width="9" height="1" fill="#FFFFFF"/>
<rect x="12" y="16" width="1" height="1" fill="#8E959A"/>
<rect x="13" y="16" width="1" height="1" fill="#2A2E31"/>
<rect x="18" y="16" width="1" height="1" fill="#2A2E31"/>
<rect x="19" y="16" width="1" height="1" fill="#F2F4F5"/>
<rect x="20" y="16" width="4" height="1" fill="#D5D9DC"/>
<rect x="24" y="16" width="1" height="1" fill="#8E959A"/>
<rect x="25" y="16" width="1" height="1" fill="#2A2E31"/>
<rect x="26" y="16" width="6" height="1" fill="#0F8A8A"/>
<rect x="1" y="17" width="1" height="1" fill="#2A2E31"/>
<rect x="2" y="17" width="1" height="1" fill="#F2F4F5"/>
<rect x="3" y="17" width="9" height="1" fill="#FFFFFF"/>
<rect x="12" y="17" width="1" height="1" fill="#8E959A"/>
<rect x="13" y="17" width="1" height="1" fill="#2A2E31"/>
<rect x="18" y="17" width="1" height="1" fill="#2A2E31"/>
<rect x="19" y="17" width="1" height="1" fill="#F2F4F5"/>
<rect x="20" y="17" width="4" height="1" fill="#D5D9DC"/>
<rect x="24" y="17" width="1" height="1" fill="#8E959A"/>
<rect x="25" y="17" width="1" height="1" fill="#2A2E31"/>
<rect x="26" y="17" width="6" height="1" fill="#0F8A8A"/>
<rect x="1" y="18" width="1" height="1" fill="#2A2E31"/>
<rect x="2" y="18" width="1" height="1" fill="#F2F4F5"/>
<rect x="3" y="18" width="9" height="1" fill="#FFFFFF"/>
<rect x="12" y="18" width="1" height="1" fill="#8E959A"/>
<rect x="13" y="18" width="1" height="1" fill="#2A2E31"/>
<rect x="18" y="18" width="1" height="1" fill="#2A2E31"/>
<rect x="19" y="18" width="1" height="1" fill="#F2F4F5"/>
<rect x="20" y="18" width="4" height="1" fill="#D5D9DC"/>
<rect x="24" y="18" width="1" height="1" fill="#8E959A"/>
<rect x="25" y="18" width="7" height="1" fill="#2A2E31"/>
<rect x="1" y="19" width="1" height="1" fill="#2A2E31"/>
<rect x="2" y="19" width="1" height="1" fill="#F2F4F5"/>
<rect x="3" y="19" width="9" height="1" fill="#FFFFFF"/>
<rect x="12" y="19" width="1" height="1" fill="#8E959A"/>
<rect x="13" y="19" width="1" height="1" fill="#2A2E31"/>
<rect x="15" y="19" width="4" height="1" fill="#2A2E31"/>
<rect x="19" y="19" width="1" height="1" fill="#F2F4F5"/>
<rect x="20" y="19" width="5" height="1" fill="#8E959A"/>
<rect x="25" y="19" width="1" height="1" fill="#2A2E31"/>
<rect x="1" y="20" width="1" height="1" fill="#2A2E31"/>
<rect x="2" y="20" width="1" height="1" fill="#F2F4F5"/>
<rect x="3" y="20" width="9" height="1" fill="#FFFFFF"/>
<rect x="12" y="20" width="1" height="1" fill="#8E959A"/>
<rect x="13" y="20" width="1" height="1" fill="#2A2E31"/>
<rect x="15" y="20" width="4" height="1" fill="#2A2E31"/>
<rect x="19" y="20" width="1" height="1" fill="#F2F4F5"/>
<rect x="20" y="20" width="5" height="1" fill="#8E959A"/>
<rect x="25" y="20" width="1" height="1" fill="#2A2E31"/>
<rect x="1" y="21" width="1" height="1" fill="#2A2E31"/>
<rect x="2" y="21" width="1" height="1" fill="#F2F4F5"/>
<rect x="3" y="21" width="9" height="1" fill="#FFFFFF"/>
<rect x="12" y="21" width="1" height="1" fill="#8E959A"/>
<rect x="13" y="21" width="1" height="1" fill="#2A2E31"/>
<rect x="18" y="21" width="1" height="1" fill="#2A2E31"/>
<rect x="19" y="21" width="1" height="1" fill="#F2F4F5"/>
<rect x="20" y="21" width="4" height="1" fill="#D5D9DC"/>
<rect x="24" y="21" width="1" height="1" fill="#8E959A"/>
<rect x="25" y="21" width="1" height="1" fill="#2A2E31"/>
<rect x="1" y="22" width="1" height="1" fill="#2A2E31"/>
<rect x="2" y="22" width="1" height="1" fill="#F2F4F5"/>
<rect x="3" y="22" width="9" height="1" fill="#FFFFFF"/>
<rect x="12" y="22" width="1" height="1" fill="#8E959A"/>
<rect x="13" y="22" width="1" height="1" fill="#2A2E31"/>
<rect x="18" y="22" width="1" height="1" fill="#2A2E31"/>
<rect x="19" y="22" width="6" height="1" fill="#8E959A"/>
<rect x="25" y="22" width="1" height="1" fill="#2A2E31"/>
<rect x="1" y="23" width="1" height="1" fill="#2A2E31"/>
<rect x="2" y="23" width="1" height="1" fill="#F2F4F5"/>
<rect x="3" y="23" width="9" height="1" fill="#FFFFFF"/>
<rect x="12" y="23" width="1" height="1" fill="#8E959A"/>
<rect x="13" y="23" width="1" height="1" fill="#2A2E31"/>
<rect x="18" y="23" width="8" height="1" fill="#2A2E31"/>
<rect x="1" y="24" width="1" height="1" fill="#2A2E31"/>
<rect x="2" y="24" width="1" height="1" fill="#F2F4F5"/>
<rect x="3" y="24" width="9" height="1" fill="#FFFFFF"/>
<rect x="12" y="24" width="1" height="1" fill="#8E959A"/>
<rect x="13" y="24" width="1" height="1" fill="#2A2E31"/>
<rect x="1" y="25" width="1" height="1" fill="#2A2E31"/>
<rect x="2" y="25" width="1" height="1" fill="#F2F4F5"/>
<rect x="3" y="25" width="9" height="1" fill="#D5D9DC"/>
<rect x="12" y="25" width="1" height="1" fill="#8E959A"/>
<rect x="13" y="25" width="1" height="1" fill="#2A2E31"/>
<rect x="1" y="26" width="1" height="1" fill="#2A2E31"/>
<rect x="2" y="26" width="1" height="1" fill="#F2F4F5"/>
<rect x="3" y="26" width="9" height="1" fill="#D5D9DC"/>
<rect x="12" y="26" width="1" height="1" fill="#8E959A"/>
<rect x="13" y="26" width="1" height="1" fill="#2A2E31"/>
<rect x="1" y="27" width="1" height="1" fill="#2A2E31"/>
<rect x="2" y="27" width="1" height="1" fill="#F2F4F5"/>
<rect x="3" y="27" width="3" height="1" fill="#D5D9DC"/>
<rect x="6" y="27" width="1" height="1" fill="#2A2E31"/>
<rect x="7" y="27" width="5" height="1" fill="#D5D9DC"/>
<rect x="12" y="27" width="1" height="1" fill="#8E959A"/>
<rect x="13" y="27" width="1" height="1" fill="#2A2E31"/>
<rect x="1" y="28" width="1" height="1" fill="#2A2E31"/>
<rect x="2" y="28" width="1" height="1" fill="#F2F4F5"/>
<rect x="3" y="28" width="9" height="1" fill="#D5D9DC"/>
<rect x="12" y="28" width="1" height="1" fill="#8E959A"/>
<rect x="13" y="28" width="1" height="1" fill="#2A2E31"/>
<rect x="1" y="29" width="1" height="1" fill="#2A2E31"/>
<rect x="2" y="29" width="11" height="1" fill="#8E959A"/>
<rect x="13" y="29" width="1" height="1" fill="#2A2E31"/>
<rect x="1" y="30" width="13" height="1" fill="#2A2E31"/>
</svg>
